<?xml version="1.0" encoding="utf-8"?>
<!-- Generator: Adobe Illustrator 16.0.0, SVG Export Plug-In . SVG Version: 6.00 Build 0)  -->
<!DOCTYPE svg PUBLIC "-//W3C//DTD SVG 1.1//EN" "http://www.w3.org/Graphics/SVG/1.1/DTD/svg11.dtd">
<svg version="1.1" id="Layer_1" xmlns="http://www.w3.org/2000/svg" xmlns:xlink="http://www.w3.org/1999/xlink" x="0px" y="0px"
	 width="800px" height="400px" viewBox="0 0 800 400" enable-background="new 0 0 800 400" xml:space="preserve">
<g>
	<g>
		<path fill-rule="evenodd" clip-rule="evenodd" fill="none" d="M30.345,393.471c0-128.244,0-256.49,0-384.735
			c247.172,0,494.344,0,741.517,0c0,128.245,0,256.491,0,384.735C524.689,393.471,277.517,393.471,30.345,393.471z M346.354,182.984
			c0-55.787,0-111.229,0-166.546c-15.835,0-31.21,0-46.484,0c0,122.584,0,244.87,0,367.168c15.606,0,30.976,0,46.76,0
			c0-55.463,0-110.674,0-165.913c6.844,0,13.268,0,20.085,0c0,55.466,0,110.679,0,165.92c15.772,0,31.145,0,46.599,0
			c0-122.53,0-244.812,0-367.274c-15.566,0-30.938,0-46.76,0c0,55.636,0,111.077,0,166.646
			C359.767,182.984,353.428,182.984,346.354,182.984z M534.592,16.141c0,122.83,0,245.197,0,367.407c15.659,0,31.028,0,46.804,0
			c0-55.518,0-110.725,0-166.111c3.229,0,6.043-0.001,8.858,0.001c7.021,0.004,9.545,1.764,10.827,8.725
			c0.904,4.909,1.327,9.966,1.379,14.962c0.399,38.359,0.447,76.724,1.122,115.078c0.14,7.963,2.347,15.904,3.791,23.822
			c0.517,2.835,2.285,4.033,5.52,3.932c8.939-0.28,17.894-0.097,26.842-0.097c5.223,0,10.444,0,16.076,0
			c-6.299-20.766-6.488-41.736-6.643-62.668c-0.224-30.274,0.091-60.555-0.262-90.828c-0.15-12.928-3.907-24.408-17.767-30.164
			c9.827-4.397,15.04-11.863,16.79-21.767c0.679-3.841,1.071-7.784,1.082-11.682c0.086-32.605,0.075-65.211,0.023-97.817
			c-0.005-3.294-0.342-6.603-0.74-9.878c-2.521-20.668-17.829-37.354-38.239-41.42c-4.653-0.928-9.471-1.394-14.218-1.429
			C575.504,16.053,555.169,16.141,534.592,16.141z M284.089,164.712c0-34.942,0.004-69.884-0.001-104.825
			c-0.004-21.598-11.189-36.611-32.093-42.316c-15.774-4.305-31.825-4.343-47.639-0.41c-22.141,5.506-33.956,20.214-33.984,41.946
			c-0.094,70.374-0.084,140.749-0.004,211.122c0.022,20.007,9.741,33.677,28.701,40.338c16.037,5.633,32.543,5.471,48.974,2.233
			c20.104-3.962,36.575-17.8,36.17-45.104C283.703,233.376,284.089,199.041,284.089,164.712z M110.507,192.991
			c0,1.86,0,3.325,0,4.789c0,22.679,0.087,45.357-0.083,68.035c-0.03,3.977-0.735,8.061-1.852,11.884
			c-1.268,4.34-4.208,6.008-8.622,6.006c-4.424-0.001-7.363-1.663-8.616-6.002c-1.14-3.947-1.932-8.153-1.939-12.246
			c-0.114-67.3-0.102-134.602-0.019-201.902c0.005-3.758,0.547-7.595,1.434-11.25c1.109-4.573,4.191-6.572,8.937-6.63
			c4.773-0.059,7.944,1.821,9.134,6.357c0.983,3.746,1.531,7.711,1.556,11.584c0.141,22.432,0.069,44.866,0.069,67.3
			c0,1.445,0,2.891,0,4.535c15.595,0,30.841,0,46.317,0c0-1.597,0-2.936,0-4.275c0-23.782,0.005-47.564-0.001-71.346
			c-0.007-21.419-11.161-36.509-31.783-42.189c-15.884-4.375-32.056-4.45-47.991-0.466C54.892,22.713,43.133,37.386,43.105,59.14
			c-0.091,70.366-0.083,140.73-0.003,211.096c0.023,20.013,9.732,33.665,28.7,40.329c16.034,5.634,32.539,5.473,48.967,2.236
			c20.13-3.966,36.727-17.82,36.157-45.09c-0.491-23.526-0.102-47.071-0.102-70.608c0-1.31,0-2.62,0-4.112
			C141.272,192.991,126.133,192.991,110.507,192.991z M428.657,16.335c0,122.607,0,244.986,0,367.329c31.75,0,63.212,0,94.771,0
			c0-12.97,0-25.74,0-38.861c-16.186,0-32.067,0-47.876,0c0-42.563,0-84.771,0-127.296c11.777,0,23.25,0,34.756,0
			c0-11.621,0-22.924,0-34.521c-11.782,0-23.263,0-34.799,0c0-42.752,0-85.208,0-128.029c14.907,0,29.553,0,44.346,0
			c0-13.055,0-25.741,0-38.621C489.414,16.335,459.178,16.335,428.657,16.335z M667.732,16.34c0,122.592,0,244.97,0,367.329
			c31.745,0,63.208,0,94.783,0c0-12.965,0-25.739,0-38.859c-16.181,0-32.062,0-47.89,0c0-42.56,0-84.769,0-127.292
			c11.772,0,23.244,0,34.769,0c0-11.623,0-22.928,0-34.525c-11.776,0-23.257,0-34.812,0c0-42.75,0-85.205,0-128.026
			c14.902,0,29.55,0,44.355,0c0-13.055,0-25.741,0-38.626C728.505,16.34,698.269,16.34,667.732,16.34z M164.712,381.353
			c3.629-0.577,6.582-0.807,9.405-1.537c13.733-3.552,27.417-7.292,41.146-10.864c19.765-5.144,39.556-10.185,59.326-15.307
			c4.263-1.104,8.533-2.229,12.686-3.674c0.886-0.309,2.039-2.304,1.776-3.087c-2.566-7.629-5.447-15.152-8.148-22.737
			c-0.944-2.65-2.671-3.232-5.188-2.554c-16.173,4.364-32.339,8.753-48.532,13.044c-17.97,4.763-35.964,9.434-53.952,14.131
			c-4.053,1.059-8.083,1.86-12.273,0.398c-3.346-1.168-6.806-2.009-10.216-2.994c-12.8-3.7-25.599-7.404-38.402-11.098
			c-9.984-2.88-19.975-5.735-29.957-8.623c-8.694-2.516-17.36-5.136-26.096-7.496c-1.019-0.275-3.168,0.5-3.505,1.318
			c-2.977,7.22-5.661,14.561-8.432,21.865c-1.2,3.163-0.329,4.985,3.128,5.941c13.433,3.717,26.822,7.596,40.212,11.47
			c20.67,5.979,41.317,12.039,61.997,17.984C154.83,379.014,160.064,380.18,164.712,381.353z"/>
		<path fill-rule="evenodd" clip-rule="evenodd" d="M346.354,182.984c7.074,0,13.413,0,20.2,0c0-55.569,0-111.01,0-166.646
			c15.821,0,31.193,0,46.76,0c0,122.462,0,244.744,0,367.274c-15.454,0-30.826,0-46.599,0c0-55.241,0-110.454,0-165.92
			c-6.817,0-13.241,0-20.085,0c0,55.239,0,110.45,0,165.913c-15.784,0-31.154,0-46.76,0c0-122.298,0-244.584,0-367.168
			c15.274,0,30.648,0,46.484,0C346.354,71.755,346.354,127.197,346.354,182.984z"/>
		<path fill-rule="evenodd" clip-rule="evenodd" d="M534.592,16.141c20.577,0,40.912-0.087,61.246,0.065
			c4.747,0.035,9.564,0.501,14.218,1.429c20.41,4.066,35.719,20.751,38.239,41.42c0.398,3.275,0.735,6.584,0.74,9.878
			c0.052,32.606,0.063,65.212-0.023,97.817c-0.011,3.898-0.403,7.841-1.082,11.682c-1.75,9.903-6.963,17.37-16.79,21.767
			c13.859,5.756,17.616,17.236,17.767,30.164c0.353,30.273,0.038,60.554,0.262,90.828c0.154,20.932,0.344,41.902,6.643,62.668
			c-5.632,0-10.854,0-16.076,0c-8.948,0-17.902-0.184-26.842,0.097c-3.234,0.102-5.003-1.097-5.52-3.932
			c-1.444-7.918-3.651-15.859-3.791-23.822c-0.675-38.354-0.723-76.719-1.122-115.078c-0.052-4.996-0.475-10.053-1.379-14.962
			c-1.282-6.961-3.807-8.721-10.827-8.725c-2.815-0.002-5.63-0.001-8.858-0.001c0,55.387,0,110.594,0,166.111
			c-15.775,0-31.145,0-46.804,0C534.592,261.338,534.592,138.971,534.592,16.141z M581.409,54.644c0,42.933,0,85.373,0,128.23
			c3.629,0,7.029,0.034,10.43-0.009c4.668-0.057,7.261-1.521,8.461-6.06c1.207-4.567,2.081-9.37,2.111-14.075
			c0.185-28.902,0.193-57.806-0.014-86.708c-0.035-4.945-1.087-9.954-2.241-14.797c-0.826-3.464-3.193-6.244-7.112-6.524
			C589.291,54.433,585.504,54.644,581.409,54.644z"/>
		<path fill-rule="evenodd" clip-rule="evenodd" d="M284.089,164.712c0,34.329-0.386,68.664,0.122,102.984
			c0.405,27.304-16.067,41.142-36.17,45.104c-16.43,3.237-32.937,3.399-48.974-2.233c-18.96-6.661-28.679-20.331-28.701-40.338
			c-0.08-70.374-0.09-140.748,0.004-211.122c0.029-21.732,11.843-36.44,33.984-41.946c15.814-3.933,31.865-3.895,47.639,0.41
			c20.904,5.705,32.089,20.718,32.093,42.316C284.093,94.828,284.089,129.77,284.089,164.712z M237.771,165.117
			c0-33.569,0.066-67.139-0.083-100.708c-0.019-4.213-0.826-8.513-1.906-12.604c-0.94-3.563-3.61-5.638-7.618-5.733
			c-6.517-0.155-9.848,2.762-10.875,10.208c-0.483,3.506-0.688,7.076-0.69,10.617c-0.039,65.423-0.062,130.847,0.041,196.271
			c0.007,4.725,0.571,9.55,1.659,14.145c1.144,4.831,4.077,6.573,8.866,6.581c4.829,0.009,7.682-1.725,8.939-6.5
			c1.015-3.858,1.584-7.948,1.599-11.938C237.823,232.012,237.771,198.564,237.771,165.117z"/>
		<path fill-rule="evenodd" clip-rule="evenodd" d="M110.507,192.991c15.626,0,30.765,0,46.317,0c0,1.493,0,2.803,0,4.112
			c0,23.537-0.389,47.082,0.102,70.608c0.569,27.27-16.027,41.124-36.157,45.09c-16.428,3.236-32.933,3.397-48.967-2.236
			c-18.968-6.664-28.677-20.316-28.7-40.329c-0.081-70.366-0.088-140.73,0.003-211.096c0.028-21.754,11.787-36.427,33.944-41.966
			c15.936-3.983,32.107-3.909,47.991,0.466c20.622,5.68,31.776,20.77,31.783,42.189c0.007,23.782,0.001,47.564,0.001,71.346
			c0,1.339,0,2.678,0,4.275c-15.476,0-30.723,0-46.317,0c0-1.645,0-3.09,0-4.535c0-22.434,0.072-44.868-0.069-67.3
			c-0.024-3.873-0.573-7.838-1.556-11.584c-1.19-4.536-4.361-6.416-9.134-6.357c-4.746,0.058-7.828,2.057-8.937,6.63
			c-0.887,3.656-1.429,7.493-1.434,11.25c-0.083,67.3-0.096,134.602,0.019,201.902c0.007,4.093,0.799,8.299,1.939,12.246
			c1.253,4.339,4.192,6.001,8.616,6.002c4.414,0.002,7.354-1.666,8.622-6.006c1.117-3.823,1.822-7.907,1.852-11.884
			c0.17-22.678,0.083-45.356,0.083-68.035C110.507,196.316,110.507,194.851,110.507,192.991z"/>
		<path fill-rule="evenodd" clip-rule="evenodd" d="M428.657,16.335c30.521,0,60.757,0,91.197,0c0,12.88,0,25.566,0,38.621
			c-14.793,0-29.438,0-44.346,0c0,42.822,0,85.277,0,128.029c11.536,0,23.017,0,34.799,0c0,11.597,0,22.9,0,34.521
			c-11.506,0-22.979,0-34.756,0c0,42.524,0,84.733,0,127.296c15.809,0,31.69,0,47.876,0c0,13.121,0,25.892,0,38.861
			c-31.559,0-63.021,0-94.771,0C428.657,261.321,428.657,138.942,428.657,16.335z"/>
		<path fill-rule="evenodd" clip-rule="evenodd" d="M667.732,16.34c30.536,0,60.772,0,91.206,0c0,12.886,0,25.572,0,38.626
			c-14.806,0-29.453,0-44.355,0c0,42.821,0,85.275,0,128.026c11.555,0,23.035,0,34.812,0c0,11.597,0,22.902,0,34.525
			c-11.524,0-22.996,0-34.769,0c0,42.523,0,84.732,0,127.292c15.828,0,31.709,0,47.89,0c0,13.12,0,25.895,0,38.859
			c-31.575,0-63.038,0-94.783,0C667.732,261.311,667.732,138.933,667.732,16.34z"/>
		<path fill-rule="evenodd" clip-rule="evenodd" d="M164.712,381.353c-4.647-1.173-9.882-2.339-15.027-3.818
			c-20.68-5.945-41.327-12.006-61.997-17.984c-13.39-3.874-26.779-7.753-40.212-11.47c-3.457-0.956-4.328-2.778-3.128-5.941
			c2.771-7.305,5.456-14.646,8.432-21.865c0.337-0.818,2.486-1.594,3.505-1.318c8.736,2.36,17.402,4.98,26.096,7.496
			c9.982,2.888,19.973,5.743,29.957,8.623c12.803,3.693,25.602,7.397,38.402,11.098c3.41,0.985,6.87,1.826,10.216,2.994
			c4.191,1.462,8.221,0.66,12.273-0.398c17.988-4.697,35.982-9.368,53.952-14.131c16.192-4.291,32.358-8.68,48.532-13.044
			c2.517-0.679,4.244-0.097,5.188,2.554c2.701,7.585,5.582,15.108,8.148,22.737c0.263,0.783-0.89,2.778-1.776,3.087
			c-4.152,1.444-8.422,2.569-12.686,3.674c-19.77,5.122-39.562,10.163-59.326,15.307c-13.728,3.572-27.413,7.313-41.146,10.864
			C171.294,380.546,168.341,380.775,164.712,381.353z"/>
		<path fill-rule="evenodd" clip-rule="evenodd" fill="none" d="M581.409,54.644c4.095,0,7.882-0.21,11.635,0.058
			c3.919,0.28,6.286,3.06,7.112,6.524c1.154,4.843,2.206,9.852,2.241,14.797c0.207,28.901,0.198,57.806,0.014,86.708
			c-0.03,4.705-0.904,9.508-2.111,14.075c-1.2,4.539-3.793,6.003-8.461,6.06c-3.4,0.042-6.801,0.009-10.43,0.009
			C581.409,140.017,581.409,97.577,581.409,54.644z"/>
		<path fill-rule="evenodd" clip-rule="evenodd" fill="none" d="M237.771,165.117c0,33.447,0.052,66.895-0.069,100.34
			c-0.015,3.989-0.583,8.079-1.599,11.938c-1.257,4.775-4.11,6.509-8.939,6.5c-4.789-0.008-7.722-1.75-8.866-6.581
			c-1.088-4.595-1.652-9.42-1.659-14.145c-0.103-65.424-0.08-130.848-0.041-196.271c0.002-3.541,0.207-7.111,0.69-10.617
			c1.027-7.446,4.358-10.363,10.875-10.208c4.008,0.095,6.677,2.17,7.618,5.733c1.08,4.09,1.887,8.39,1.906,12.604
			C237.837,97.979,237.771,131.548,237.771,165.117z"/>
	</g>
</g>
</svg>
